<svg width="268" height="546" viewBox="0 0 268 546" fill="none" xmlns="http://www.w3.org/2000/svg">
<path d="M0.999756 1H267.226V544.879H0.999756V1Z" fill="#080808"/>
<path d="M237.518 540.88H30.1361C27.3939 526.711 14.9014 522.027 8.99797 521.455L10.7119 25.566C24.4231 23.7378 29.3744 11.4739 30.1361 5.57041H237.518C239.804 18.8246 252.944 24.8042 259.228 26.1373V519.742C247.802 522.484 239.994 534.976 237.518 540.88Z" fill="#080808"/>
<path d="M10.1406 466.61L83.8384 540.308M183.816 4.99911L258.657 79.8396M9.56927 154.68L258.657 403.767M0.999756 1H267.226V544.879H0.999756V1ZM30.1361 540.88H237.518C239.994 534.976 247.802 522.484 259.228 519.742V26.1373C252.944 24.8042 239.804 18.8246 237.518 5.57041H30.1361C29.3744 11.4739 24.4231 23.7378 10.7119 25.566L8.99797 521.455C14.9014 522.027 27.3939 526.711 30.1361 540.88Z" stroke="white"/>
<path d="M52.4167 196.068C65.4703 173.893 96.9729 129.543 118.555 129.543L184.693 196.068L202.098 213.574C187.304 220.577 153.016 243.51 134.219 279.224" stroke="white"/>
<path d="M52.4167 196.068C65.4703 173.893 96.9729 129.543 118.555 129.543L184.693 196.068L202.098 213.574C187.304 220.577 153.016 243.51 134.219 279.224" stroke="white"/>
<path d="M54.7021 196.702C68.5529 173.173 101.979 126.115 124.879 126.115L195.056 196.702L213.524 215.278C197.826 222.708 161.445 247.042 141.5 284.937" stroke="white"/>
<path d="M47.8464 192.132C60.9 170.126 92.4026 126.115 113.985 126.115L180.123 192.132L197.527 209.505C182.733 216.454 148.446 239.213 129.649 274.653" stroke="white"/>
<path d="M109.567 121.545C88.0247 121.545 57.4484 165.556 44.4187 187.562L125.203 270.083C143.965 234.642 178.19 211.884 192.957 204.935L175.584 187.562L109.567 121.545Z" fill="#080808" stroke="white"/>
<path d="M10.7119 104.977L222.665 44.4189" stroke="white"/>
<path d="M44.4187 500.317L256.371 439.759" stroke="white"/>
<path d="M155.251 300.933L258.086 271.797" stroke="white"/>
<path d="M8.99805 284.365L111.832 255.229" stroke="white"/>
<path d="M155.823 63.8431L258.657 166.677" stroke="white"/>
<path d="M10 375.5L116 480.5" stroke="white"/>
<path d="M213.524 358.952C200.471 381.127 168.968 425.477 147.386 425.477L81.248 358.952L63.8432 341.445C78.6373 334.443 112.925 311.509 131.722 275.796" stroke="white"/>
<path d="M213.524 358.952C200.471 381.127 168.968 425.477 147.386 425.477L81.248 358.952L63.8432 341.445C78.6373 334.443 112.925 311.509 131.722 275.796" stroke="white"/>
<path d="M211.239 358.317C197.388 381.846 163.962 428.905 141.062 428.905L70.8847 358.317L52.417 339.742C68.1145 332.311 104.496 307.977 124.441 270.083" stroke="white"/>
<path d="M218.094 362.888C205.041 384.893 173.538 428.905 151.956 428.905L85.8183 362.888L68.4136 345.515C83.2076 338.566 117.495 315.807 136.292 280.366" stroke="white"/>
<path d="M156.374 433.475C177.916 433.475 208.493 389.464 221.522 367.458L140.738 284.937C121.975 320.377 87.7509 343.136 72.9839 350.085L90.3568 367.458L156.374 433.475Z" fill="#080808" stroke="white"/>
<path d="M27.4998 172.5C29.9998 127.167 52.1998 36.6 121 37L259 175" stroke="white"/>
<path d="M234.5 380.5C232 425.833 216.3 521.9 147.5 521.5L9.5 383.5" stroke="white"/>
</svg>
