<svg width="268" height="546" viewBox="0 0 268 546" fill="none" xmlns="http://www.w3.org/2000/svg">
<path d="M1 1H267V545H1V1Z" fill="#080808"/>
<path d="M237.318 541H30.1116C27.3717 526.829 14.8898 522.143 8.99142 521.571L10.7039 25.5714C24.4034 23.7429 29.3505 11.4762 30.1116 5.57143H237.318C239.601 18.8286 252.73 24.8095 259.009 26.1429V519.857C247.592 522.6 239.791 535.095 237.318 541Z" fill="#080808"/>
<path d="M10.133 466.714L83.7682 540.429M183.661 5L258.438 79.8571M9.56223 154.714L258.438 403.857M1 1H267V545H1V1ZM30.1116 541H237.318C239.791 535.095 247.592 522.6 259.009 519.857V26.1429C252.73 24.8095 239.601 18.8286 237.318 5.57143H30.1116C29.3505 11.4762 24.4034 23.7429 10.7039 25.5714L8.99142 521.571C14.8898 522.143 27.3717 526.829 30.1116 541Z" stroke="white"/>
<path d="M113 206L46.7804 139.799V122L106.797 62M28 172.286L95.7703 104.718" stroke="white"/>
<path d="M142 287L223 202.348L157.294 136M207.639 236.371L158.323 186.426" stroke="white"/>
<path d="M207 244L154 298" stroke="white"/>
<circle cx="109.5" cy="57.5" r="6" stroke="white"/>
<circle cx="116.5" cy="209.5" r="6" stroke="white"/>
<path d="M105.5 100C105.5 103.001 102.852 105.5 99.5 105.5C96.1479 105.5 93.5 103.001 93.5 100C93.5 96.9994 96.1479 94.5 99.5 94.5C102.852 94.5 105.5 96.9994 105.5 100Z" stroke="white"/>
<circle cx="211.5" cy="240.5" r="6" stroke="white"/>
<path d="M215 244L225 254" stroke="white"/>
<path d="M204.5 100C204.5 109.678 196.876 117.5 187.5 117.5C178.124 117.5 170.5 109.678 170.5 100C170.5 90.3216 178.124 82.5 187.5 82.5C196.876 82.5 204.5 90.3216 204.5 100Z" stroke="white"/>
<path d="M114.197 136L101 149.197L122.803 171L136 157.803L114.197 136Z" stroke="white"/>
<path d="M145 340L210.441 406.201L210.441 424L151.13 484M229 373.714L162.027 441.282" stroke="white"/>
<path d="M115 259L34 342.84L100.169 409M49.4694 308.915L99.1328 358.717" stroke="white"/>
<path d="M50 301L103 247" stroke="white"/>
<path d="M141.5 487.5C141.5 484.186 144.186 481.5 147.5 481.5C150.814 481.5 153.5 484.186 153.5 487.5C153.5 490.814 150.814 493.5 147.5 493.5C144.186 493.5 141.5 490.814 141.5 487.5Z" stroke="white"/>
<path d="M134.5 335.5C134.5 332.186 137.186 329.5 140.5 329.5C143.814 329.5 146.5 332.186 146.5 335.5C146.5 338.814 143.814 341.5 140.5 341.5C137.186 341.5 134.5 338.814 134.5 335.5Z" stroke="white"/>
<path d="M151.5 445.5C151.5 442.186 154.186 439.5 157.5 439.5C160.814 439.5 163.5 442.186 163.5 445.5C163.5 448.814 160.814 451.5 157.5 451.5C154.186 451.5 151.5 448.814 151.5 445.5Z" stroke="white"/>
<path d="M39.5 305C39.5 301.999 42.1479 299.5 45.5 299.5C48.8521 299.5 51.5 301.999 51.5 305C51.5 308.001 48.8521 310.5 45.5 310.5C42.1479 310.5 39.5 308.001 39.5 305Z" stroke="white"/>
<path d="M42 301L33 292" stroke="white"/>
<path d="M52.5 445.5C52.5 436.111 60.1112 428.5 69.5 428.5C78.8888 428.5 86.5 436.111 86.5 445.5C86.5 454.889 78.8888 462.5 69.5 462.5C60.1112 462.5 52.5 454.889 52.5 445.5Z" stroke="white"/>
<path d="M142.803 409L156 395.803L134.197 374L121 387.197L142.803 409Z" stroke="white"/>
</svg>
