<svg width="269" height="546" viewBox="0 0 269 546" fill="none" xmlns="http://www.w3.org/2000/svg">
<path d="M1 1H268V545H1V1Z" fill="#080808"/>
<path d="M238.206 541H30.221C27.4708 526.829 14.9421 522.143 9.02146 521.571L10.7403 25.5714C24.4914 23.7429 29.4571 11.4762 30.221 5.57143H238.206C240.498 18.8286 253.676 24.8095 259.979 26.1429V519.857C248.519 522.6 240.689 535.095 238.206 541Z" fill="#080808"/>
<path d="M10.1674 466.714L84.0794 540.429M184.348 5L259.406 79.8571M9.59442 154.714L259.406 403.857M1 1H268V545H1V1ZM30.221 541H238.206C240.689 535.095 248.519 522.6 259.979 519.857V26.1429C253.676 24.8095 240.498 18.8286 238.206 5.57143H30.221C29.4571 11.4762 24.4914 23.7429 10.7403 25.5714L9.02146 521.571C14.9421 522.143 27.4708 526.829 30.221 541Z" stroke="white"/>
<path d="M117.587 263L42 188.398L203.48 162L247 240.045L117.587 263Z" stroke="white"/>
<path d="M54.6311 99.4504L43.0415 188.347L204.104 161.795L220.434 74.3005L54.6311 99.4504Z" stroke="white"/>
<path d="M108 254L241 230" stroke="white"/>
<path d="M152.413 299L228 373.602L66.5195 400L23 321.955L152.413 299Z" stroke="white"/>
<path d="M215.383 462.425L226.973 373.529L65.9104 400.08L49.5805 487.575L215.383 462.425Z" stroke="white"/>
<path d="M162 308L29 332" stroke="white"/>
<path d="M43.5 188L260.5 49" stroke="white"/>
<path d="M11 513L228 374" stroke="white"/>
</svg>
